<svg xmlns="http://www.w3.org/2000/svg" viewBox="0 0 32 32" fill="none">
  <!-- Wings -->
  <ellipse cx="10" cy="12" rx="7.5" ry="4" fill="#C8E6FF" fill-opacity="0.85" stroke="#90C4F0" stroke-width="0.6" transform="rotate(-35 10 12)"/>
  <ellipse cx="22" cy="12" rx="7.5" ry="4" fill="#C8E6FF" fill-opacity="0.85" stroke="#90C4F0" stroke-width="0.6" transform="rotate(35 22 12)"/>
  <!-- Body -->
  <ellipse cx="16" cy="20" rx="6.5" ry="8.5" fill="#F5A623"/>
  <!-- Stripes -->
  <path d="M9.6 17.5 Q16 16.5 22.4 17.5 Q22.4 20 16 20 Q9.6 20 9.6 17.5Z" fill="#1A1A1A" opacity="0.75"/>
  <path d="M9.8 21.5 Q16 20.5 22.2 21.5 Q22 24 16 24 Q10 24 9.8 21.5Z" fill="#1A1A1A" opacity="0.65"/>
  <!-- Head -->
  <circle cx="16" cy="11.5" r="4.2" fill="#1A1A1A"/>
  <!-- Eyes -->
  <circle cx="14.4" cy="11" r="1" fill="white"/>
  <circle cx="17.6" cy="11" r="1" fill="white"/>
  <circle cx="14.6" cy="11.1" r="0.4" fill="#333"/>
  <circle cx="17.8" cy="11.1" r="0.4" fill="#333"/>
  <!-- Antennae -->
  <line x1="14.2" y1="7.8" x2="11.5" y2="4" stroke="#1A1A1A" stroke-width="1.1" stroke-linecap="round"/>
  <circle cx="11.2" cy="3.5" r="1.1" fill="#1A1A1A"/>
  <line x1="17.8" y1="7.8" x2="20.5" y2="4" stroke="#1A1A1A" stroke-width="1.1" stroke-linecap="round"/>
  <circle cx="20.8" cy="3.5" r="1.1" fill="#1A1A1A"/>
  <!-- Stinger -->
  <path d="M16 28.5 L14.2 26.8 L17.8 26.8 Z" fill="#1A1A1A" opacity="0.5"/>
</svg>
